<?xml version="1.0" encoding="utf-8"?>
<svg xmlns="http://www.w3.org/2000/svg" width="950px" height="1052px" viewBox="0 0 1080 1080" xmlns:bx="https://boxy-svg.com">
  <defs>
    <bx:export>
      <bx:file format="png" width="512" height="512" dpi="300" path="icon-512.png"/>
    </bx:export>
  </defs>
  <g transform="matrix(0.626209, 0, 0, 0.626209, 241.915451, 282.634186)" style="">
    <path d="M 474.48 33.074 C 480.789 32.719 485.28 34.933 489.965 38.924 C 498.909 46.545 507.196 54.864 515.638 63.028 L 547.556 93.473 L 652.381 193.331 L 737.537 274.523 C 762.067 297.796 784.604 317.615 805.874 344.155 C 835.97 381.704 849.382 426.135 843.938 474.14 C 840.75 502.231 830.837 528.925 815.366 552.656 C 798.615 578.349 774.781 598.935 752.919 620.278 L 677.74 693.669 L 632.841 738.051 C 624.594 746.27 611.92 759.433 603.065 766.46 C 598.941 763.138 594.338 758.34 590.447 754.548 L 571.238 736.072 C 559.246 724.715 546.836 713.625 534.858 702.311 C 520.086 688.357 545.342 669.051 555.01 660.081 L 580.745 636.168 L 659.095 561.871 C 675.714 545.678 694.22 529.516 705.937 509.332 C 738.069 453.985 714.864 386.752 661.262 355.326 C 619.273 330.708 569.621 334.555 529.747 361.383 C 520.687 367.487 512.495 375.912 504.636 383.486 L 482.598 404.519 L 419.019 465.211 C 402.921 480.695 387.955 498.369 365.396 504.116 C 322.814 514.962 278.127 471.722 305.046 430.582 C 316.14 413.628 330.604 401.739 345.32 387.971 L 376.457 358.29 L 479.577 260.204 C 491.224 249.231 505.96 236.96 515.506 224.548 C 524.924 212.303 496.16 190.562 488.009 182.959 L 435.932 134.252 C 427.014 125.924 417.9 117.754 409.274 109.143 C 404.392 104.27 403.214 97.971 407.663 92.358 C 414.167 84.156 422.88 76.749 430.48 69.4 L 452.133 48.544 C 459.043 42.004 464.853 35.175 474.48 33.074 Z" style="stroke-width: 0px; fill: rgb(63, 169, 245);"/>
    <path d="M 347.433 141.816 C 349.034 142.227 350.737 143.604 351.917 144.758 C 372.279 164.666 393.283 184.124 414.196 203.426 C 428.484 216.615 416.241 228.712 405.936 238.763 C 402.018 242.583 397.989 246.339 393.981 250.07 L 362.433 279.44 L 304.249 334.601 C 269.7 367.384 231.288 397.719 230.092 449.59 C 229.091 525.217 301.071 582.615 374.823 566.274 C 422.657 555.674 442.33 528.379 476.463 495.831 L 549.881 425.776 C 566.088 410.538 578.781 402.628 602.422 402.582 C 628.668 402.531 655.257 426.527 654.246 453.363 C 653.342 477.315 626.79 500.086 610.011 516.075 L 574.171 550.25 C 533.502 589.065 492.464 628.95 451.087 666.945 C 441.669 675.742 425.985 687.16 437.851 700.554 C 446.263 710.05 456.005 718.206 465.307 726.837 L 514.955 773.325 C 523.029 780.883 531.447 788.405 539.349 796.067 C 542.608 799.228 546.138 804.433 545.738 809.032 C 545.642 811.51 544.119 814.814 542.402 816.716 C 526.889 833.903 508.807 849.562 492.255 865.737 C 482.304 875.465 471.733 878.827 460.766 868.647 C 454.97 863.271 448.957 857.497 443.065 851.89 L 408.894 819.409 L 301.637 717.221 L 209.135 628.882 C 184.395 605.199 159.313 583.557 138.967 555.708 C 95.274 495.903 95.284 415.711 136.362 354.583 C 154 328.338 177.445 308.005 200.007 286.158 L 264.285 223.401 L 316.103 172.444 C 326.375 162.244 336.547 151.253 347.433 141.816 Z" style="stroke-width: 0px; fill: rgb(63, 169, 245);"/>
  </g>
  <g transform="matrix(4.588863, 0, 0, 4.693231, 704.184875, 639.285217)" style="">
    <path d="M 66.853 -103 L 28.945 -103 L 3.922 -128.02 C 1.174 -130.77 -2.55 -132.32 -6.442 -132.32 L -65.078 -132.32 C -68.97 -132.32 -72.694 -130.77 -75.442 -128.02 L -100.46 -103 L -138.37 -103 C -146.47 -103 -153.03 -96.464 -153.03 -88.394 L -153.03 72.857 C -153.03 80.96 -146.47 87.516 -138.37 87.516 L 66.853 87.516 C 74.956 87.516 81.512 80.96 81.512 72.857 L 81.512 -88.394 C 81.512 -96.464 74.956 -103 66.853 -103 Z M -35.76 43.54 C -68.141 43.54 -94.396 17.284 -94.396 -15.097 C -94.396 -47.478 -68.141 -73.732 -35.76 -73.732 C -3.379 -73.732 22.877 -47.478 22.877 -15.097 C 22.877 17.284 -3.379 43.54 -35.76 43.54 Z" style="fill: rgb(102, 126, 143);"/>
  </g>
</svg>